<?xml version="1.0" encoding="utf-8"?>
    <!-- Generator: Adobe Illustrator 18.1.1, SVG Export Plug-In . SVG Version: 6.00 Build 0)  -->
    <!DOCTYPE svg PUBLIC "-//W3C//DTD SVG 1.1//EN" "http://www.w3.org/Graphics/SVG/1.1/DTD/svg11.dtd">
    <svg version="1.1" id="Layer_1" xmlns="http://www.w3.org/2000/svg" xmlns:xlink="http://www.w3.org/1999/xlink" x="0px" y="0px"
       viewBox="863 -871 3379 3624" enable-background="new 863 -871 3379 3624" xml:space="preserve">
    <g transform="translate(0.000000,4205.000000) scale(0.100000,-0.100000)">
      <path d="M25966,50300c-271-31-513-121-751-278c-141-93-346-299-444-447c-128-192-236-450-266-635c-12-72-17-76-92-84
        c-37-4-124-16-193-26c-69-11-156-25-195-31c-38-5-92-14-120-19c-27-5-104-19-170-30c-378-67-1014-206-1305-285c-30-8-131-35-225-61
        c-352-95-922-276-1225-387c-52-19-129-47-170-62c-128-46-625-242-700-276c-25-12-58-27-75-34c-16-7-59-25-95-40
        c-73-31-126-55-215-95c-33-15-111-51-173-79c-257-118-765-374-944-477c-42-24-79-44-82-44c-10,0-513-289-616-355
        c-112-70-403-252-418-260c-36-20-348-232-487-330c-38-27-99-69-135-93c-79-55-144-104-148-114c-2-5-8-8-13-8c-8,0-160-108-199-142
        c-39-33-98-78-104-78c-3,0-14-8-24-17c-11-10-32-27-47-38c-16-11-87-67-158-125c-72-58-153-123-181-144c-28-22-78-62-111-90
        s-70-60-84-71c-13-11-29-24-35-30c-6-5-38-32-71-60c-33-27-67-57-75-65c-9-8-40-35-70-60c-29-25-71-61-94-82c-22-20-57-50-76-67
        s-42-34-52-37s-66,10-125,29c-394,127-809,125-1198-4c-760-254-1247-951-1176-1686c23-236,102-473,222-668c50-81,59-102,51-120
        c-5-11-54-82-108-156c-55-75-121-168-149-208c-27-39-71-102-97-139s-52-74-58-82c-14-22-57-86-110-165c-42-62-60-89-120-181
        c-20-31-137-214-153-238c-78-125-94-152-128-214c-9-18-22-38-27-45s-19-28-30-47s-58-101-105-181c-46-81-100-176-119-210
        c-19-35-44-80-55-99c-34-59-78-142-114-210c-18-36-36-67-39-70c-9-8-315-627-371-750c-28-63-64-142-79-175s-37-82-50-110
        c-12-27-33-74-46-103s-24-55-24-58c0-6-10-30-51-119c-10-22-52-125-94-230c-41-104-80-198-85-207c-6-10-10-23-10-29s-6-25-14-42
        c-26-62-46-113-81-212c-20-55-60-167-89-250c-71-198-170-503-244-750c-52-172-84-287-167-595c-42-155-166-681-184-780
        c-5-25-24-126-44-225c-75-380-134-741-176-1075c-42-336-52-421-66-585c-8-93-19-215-25-270c-5-55-14-190-20-300s-14-247-17-305
        c-3-63-11-114-19-127c-19-30-21-1209-2-1215c12-4,20-96,38-423c6-110,15-249,20-310c6-60,15-164,20-230c26-310,108-942,160-1230
        c5-27,17-93,26-145c83-496,277-1335,404-1750c11-36,34-112,50-170c80-272,240-751,321-962c16-42,29-82,29-88c0-5,4-18,10-28
        c5-9,23-55,41-102c17-47,35-94,40-105c4-11,42-105,84-208c41-104,81-203,89-220c17-38,73-170,91-212c7-16,26-59,43-95
        c16-36,60-132,97-215c69-154,320-663,401-815c25-47,68-128,96-180s59-107,70-122c10-14,18-32,18-40s5-19,11-25
        c13-13,209-354,209-365c0-4,4-8,8-8c5,0,16-15,25-33c9-17,21-39,26-47c55-89,139-227,142-235c2-5,26-44,53-85s78-120,114-175
        c109-167,159-242,186-278c14-19,26-37,26-40c0-4,19-33,43-66c23-32,49-68,57-81c8-12,34-48,58-81c23-32,42-61,42-63
        c0-6,238-327,292-395c24-29,55-71,69-92c15-21,40-55,57-76s80-100,141-175c61-76,111-139,111-141s13-19,29-38
        c74-86,118-138,146-173c17-21,39-48,50-60c11-13,47-54,80-92c33-37,83-94,110-124c28-31,75-85,105-120c169-196,742-783,995-1021
        c156-146,311-288,376-343c19-16,52-45,74-65c43-38,162-143,201-176c12-11,40-33,60-50c21-16,54-44,73-61c38-33,374-302,430-344
        c37-28,45-35,156-122c44-35,106-81,139-103c32-22,69-49,81-61c13-12,38-31,57-42c19-12,51-34,70-49c20-16,46-35,58-43
        c33-22,153-108,165-117c6-5,26-18,46-30l35-22l12-152c29-370,100-642,243-938c276-571,728-942,1274-1048c123-23,377-23,500,0
        c317,62,586,202,837,436c85,79,78,78,168,39c86-38,106-46,320-130c402-160,517-202,925-337c558-184,1170-354,1640-455
        c39-8,124-27,190-41c351-76,963-180,1320-224c94-12,224-28,290-36c216-27,664-64,960-80c160-9,304-18,320-22c27-5,28-7,10-14
        c-11-4,270-7,625-7s632,4,615,8c-30,7-30,7-5,13c14,4,156,14,315,22c823,45,1614,146,2435,311c299,60,849,191,1110,265
        c58,16,123,34,145,40s60,18,85,25c25,8,122,37,215,65c303,90,591,187,923,310c73,27,135,49,137,49s39-30,82-67
        c191-163,397-272,619-327c666-167,1341,168,1703,845c116,218,201,494,226,741c7,62,10,69,39,87c17,10,42,22,56,26s43,23,65,41
        c44,35,179,104,206,104c9,0,39,18,65,41c57,47,163,103,225,119c58,15,119,64,102,81c-22,22-15,36,35,67c41,25,237,159,284,194
        c10,7,47,33,83,58c62,42,363,261,411,298c12,9,66,51,120,92c55,41,101,77,104,80s52,43,110,88c211,164,442,356,656,544
        c183,161,202,177,250,223c23,22,71,66,106,99c57,53,456,436,482,462c44,46,379,397,447,469c46,49,91,96,99,105s42,47,75,85
        c33,37,98,112,145,165c84,94,129,147,192,225c18,22,49,58,69,80c19,22,62,74,95,115c32,41,61,77,64,80c10,10,176,220,290,370
        c28,36,57,74,65,85c9,11,39,52,67,90c29,39,56,75,60,80c26,33,138,188,138,191c0,2,19,31,43,63c23,33,49,69,57,81c8,13,34,49,57,81
        c24,33,43,62,43,65s20,32,45,64s45,62,45,67c1,4,27,46,60,93s74,110,92,140c17,30,56,90,85,134c29,43,53,80,53,81c0,2,29,51,65,108
        c36,58,65,110,65,116s3,11,8,11c4,0,16,18,26,40c11,22,23,40,28,40c4,0,8,4,8,8c0,12,195,350,215,372c10,11,15,26,12,35
        c-6,13-138,15-1226,15c-1216,0-1271-1-1271-32c0-5-35-61-77-124c-43-63-88-131-99-152c-12-20-27-38-33-40s-11-8-11-13
        c0-9-56-92-124-186c-17-23-48-66-69-95c-125-174-177-245-189-258c-7-9-55-72-107-140c-52-69-101-132-108-140c-8-8-55-67-106-130
        c-105-131-108-135-197-240c-36-42-81-96-100-119c-19-24-40-48-46-54c-5-7-34-39-64-72c-51-57-187-208-240-265
        c-272-295-634-654-940-930c-9-8-41-37-71-65c-59-54-152-135-239-209c-131-110-314-263-343-286c-18-14-86-68-152-120
        c-66-53-133-104-148-113c-16-10-36-26-46-36s-47-38-82-63s-94-67-130-94s-79-58-94-69c-16-11-41-30-56-42c-15-13-30-23-34-23
        s-25-15-48-33c-22-17-55-41-73-52s-77-50-132-87c-54-38-101-68-105-68c-9,0-146,277-239,480c-226,494-512,1206-763,1895l-88,240
        l17,260c104,1627,263,3286,482,5050c75,603,83,670,175,1330c248,1788,620,3923,974,5600c20,94,40,190,45,215
        c28,139,190,878,264,1205c297,1306,577,2410,961,3800c248,894,821,2785,855,2819c10,10,21-1,89-80c19-21,61-68,95-105
        c65-70,146-162,192-219c15-19,46-55,69-81c22-25,51-58,64-74c31-37,356-444,375-470c8-11,37-48,63-82c26-33,55-71,63-83
        s38-52,65-90c28-37,57-78,65-90c31-46,85-115,93-118c4-2,7-8,7-13s20-37,45-71c112-157,125-176,125-183c0-3,20-33,45-65
        s45-61,45-64s18-31,40-62c22-32,40-63,40-69c0-34,36-35,1253-35c915,0,1206,3,1215,12s9,15-2,27c-7,9-55,88-106,176
        s-101,174-111,190c-10,17-28,47-40,69c-11,21-47,79-78,130c-32,50-91,144-132,209c-41,64-81,128-89,141c-8,12-22,33-30,46
        c-36,56-219,329-246,366c-16,23-35,50-42,60c-7,11-35,51-62,89c-27,39-55,78-62,88s-29,40-48,66s-66,91-105,145
        c-38,53-99,134-135,180s-76,99-90,117c-41,55-352,444-359,449c-4,3-24,28-46,55c-22,28-46,57-55,66c-8,10-31,36-50,60
        c-19,23-41,48-47,55c-18,18-16,52,7,119c30,87,58,247,71,406c35,410-78,847-309,1194c-78,119-106,153-215,264
        c-175,178-358,301-572,386c-410,162-859,148-1264-41c-52-24-102-42-110-39c-9,3-34,21-56,41c-22,19-63,51-91,70s-71,51-95,72
        s-64,51-89,67c-25,17-47,33-50,36c-9,11-237,177-258,188c-11,6-26,17-34,23c-7,7-33,26-58,43c-25,16-47,32-50,35s-50,36-105,73
        c-55,36-136,91-180,120c-134,91-301,198-485,311c-96,59-182,112-190,117s-30,17-47,26c-18,9-33,20-33,25c0,4-4,8-10,8
        c-5,0-42,20-82,43c-40,24-119,70-176,101c-56,32-105,62-108,67s-12,9-21,9c-8,0-27,8-41,18c-45,32-438,238-682,359
        c-176,87-527,253-535,253c-2,0-41,18-87,39c-137,64-418,182-673,283c-362,143-615,235-955,346c-522,171-1077,323-1620,443
        c-261,58-652,135-805,159c-33,5-87,14-120,20c-67,11-127,21-290,44c-60,9-157,23-215,31c-58,9-148,20-200,25s-149,16-215,24
        s-156,18-200,21s-123,10-175,16c-52,5-160,13-239,19c-79,5-146,11-148,14c-2,2-20,57-40,122c-130,433-439,810-832,1012
        c-175,91-304,135-488,167C26293,50304,26071,50312,25966,50300z M27620,47085c1294-79,2616-347,3880-788c225-79,295-104,337-123
        c17-8,34-14,38-14c8,0,432-170,501-200c27-12,63-28,79-35c369-161,440-194,810-381c304-153,410-209,495-259c30-18,82-47,115-65
        s76-42,95-53c56-31,430-256,485-292c28-17,82-52,120-77c206-132,502-332,531-359c11-10,24-19,30-19c5,0,36-21,69-45
        c33-25,71-53,84-63c13-9,48-35,77-57s75-56,101-75s50-37,53-41c3-3,32-25,65-49s87-66,120-92c33-27,70-57,82-66c13-9,33-25,45-35
        c11-9,41-32,64-50c24-17,46-40,49-49c4-10-43-167-104-350s-135-409-165-503c-143-445-262-821-306-970c-10-33-49-163-88-290
        c-111-365-222-740-345-1170c-128-447-157-551-347-1245c-219-802-578-2254-786-3180c-640-2845-1109-5542-1484-8530
        c-22-178-42-325-44-327c-2-3-66,284-382,1707c-36,162-69,313-73,335c-5,22-29,132-54,245s-84,378-131,590
        c-122,552-242,1095-362,1640c-282,1273-342,1546-459,2075c-70,314-135,608-145,655c-24,112-150,678-200,900c-22,96-78,348-125,560
        s-106,473-130,580s-71,319-105,470c-89,396-278,1234-375,1660c-160,701-173,754-326,1405c-33,143-71,305-84,360
        c-209,907-378,1535-642,2390c-108,352-120,388-273,865c-74,230-386,1181-407,1240c-3,8-72,213-153,455c-217,643-384,1133-554,1625
        c-13,36-26,78-30,94l-7,28l53-6C27341,47103,27480,47094,27620,47085z M24819,46828c-33-95-119-342-191-548
        c-71-206-166-478-210-605c-44-126-100-286-123-355c-24-69-170-494-325-945c-375-1093-912-2699-1121-3359
        c-392-1232-524-1695-759-2661c-144-591-413-1745-640-2750c-45-198-104-459-131-580c-28-121-73-321-101-445c-27-124-76-342-108-485
        s-142-636-244-1095s-190-853-196-875c-5-22-75-335-154-695c-80-360-197-889-260-1175c-251-1138-365-1654-382-1732
        c-10-46-20-83-23-83s-37,217-74,483c-249,1750-551,3487-908,5217c-123,593-302,1419-384,1765c-8,33-37,159-65,280s-64,274-80,340
        c-15,66-47,199-70,295c-116,481-325,1307-445,1755c-148,553-347,1270-450,1620c-25,88-62,214-81,280c-196,670-571,1873-760,2433
        c-13,40-24,76-24,80c0,10,35,46,131,133c120,110,125,114,239,219c56,52,112,103,124,113c66,55,184,157,206,177c8,8,43,37,78,64
        c35,26,75,59,90,72s32,27,37,32c28,21,122,100,149,125c17,15,34,27,38,27c5,0,16,8,27,19c10,10,49,41,87,69c38,29,74,55,79,60
        c6,4,44,34,85,65s80,60,85,64c24,19,256,187,291,211c10,7,103,70,205,140s195,132,205,139s63,40,117,75c53,35,105,68,115,73
        c9,6,31,19,47,30c17,11,39,25,50,32c11,6,81,48,155,94c74,45,155,93,180,107s59,33,75,43c17,10,50,29,75,42s95,52,155,87
        c61,35,268,142,460,239c320,161,399,199,549,266c64,29,182,82,221,100c42,19,92,40,150,63c28,11,95,39,150,62
        c281,117,966,366,1130,410c17,4,89,26,161,48c116,37,234,71,459,132c97,27,536,133,675,164c406,89,1100,207,1262,215l27,1
        L24819,46828z M26325,44023c339-1029,380-1154,573-1778c231-745,339-1138,538-1970c84-349,331-1410,424-1820
        c393-1732,525-2318,1035-4615c336-1516,425-1914,600-2710c42-190,128-579,191-865s135-612,160-725s63-284,84-380
        c22-96,74-330,115-520c161-730,306-1387,315-1425c6-22,71-312,145-645c313-1410,478-2134,585-2560c68-270,347-1138,658-2050l50-145
        l-18-325c-56-986-95-2125-105-3040c-4-283-8-524-10-536c-4-16-27-29-102-57c-230-85-592-200-988-313c-228-65-766-193-1020-243
        c-770-151-1278-214-2180-271c-88-5-401-10-695-10c-464,0-585,3-910,25c-206,14-436,32-510,40s-175,19-225,24c-130,14-395,49-505,66
        c-52,9-151,24-220,35c-367,59-839,158-1230,259c-317,82-374,98-655,183c-138,41-519,168-640,213c-55,20-111,40-125,45
        c-56,18-390,146-455,175c-16,7-75,31-130,53s-170,71-255,109c-85,39-163,72-172,76c-23,8-26,54-33,462c-16,994-90,2712-155,3592
        c-7,97-6,134,6,185c18,75,91,398,109,483c8,33,57,254,110,490c170,758,482,2167,649,2930c48,215,91,408,96,430c6,22,44,193,84,380
        c70,318,127,574,361,1635c52,234,142,641,200,905s112,509,120,545c9,36,152,682,320,1435c391,1763,648,2911,675,3020
        c5,22,33,141,60,265c54,242,75,332,200,880c125,551,277,1198,406,1740c232,972,359,1427,684,2460c310,987,774,2376,1360,4075
        c89,259,164,478,167,488c3,9,9,17,13,17S26194,44417,26325,44023z M15083,41315c8-27,72-234,141-459c307-993,603-2034,890-3131
        c77-297,325-1287,391-1565c210-887,423-1857,594-2703c611-3023,1061-6120,1341-9227c44-498,64-733,110-1354c19-255,27-202-111-771
        c-70-294-297-1006-613-1925c-50-143-45-139-97-99c-24,19-46,36-49,39c-6,7-103,84-151,120c-19,14-63,50-99,80s-96,81-135,112
        c-38,31-85,70-103,87s-58,51-90,77c-31,25-97,83-146,128c-127,115-128,116-182,164c-220,196-691,666-894,892c-41,46-98,108-127,139
        c-83,90-96,105-133,150c-19,24-40,48-46,54c-5,7-39,46-74,87s-67,77-70,80c-4,3-54,63-111,134c-207,257-364,460-484,626
        c-44,61-92,126-106,143c-14,18-28,40-32,50c-4,9-11,17-17,17c-5,0-10,5-10,11s-19,36-42,67c-24,32-47,65-53,73
        c-12,19-103,153-132,194c-18,27-168,259-200,310c-7,11-36,58-65,105c-29,46-55,89-58,95c-3,5-21,35-40,66c-81,128-196,326-268,459
        c-19,36-38,70-42,75c-29,38-299,565-408,795c-89,186-132,280-132,284s-44,103-89,201c-11,22-29,65-41,95s-28,69-36,85
        c-25,57-176,440-216,550c-22,61-51,139-65,175c-13,36-29,81-34,100s-14,44-20,55c-11,24-136,403-174,530c-15,50-35,117-45,150
        c-106,348-234,862-331,1340c-17,83-35,173-39,200c-5,28-23,133-40,235c-84,489-150,1053-187,1590c-15,208-18,389-18,975
        c0,651,2,749,23,1022c64,863,162,1530,346,2358c30,134,131,543,150,605c8,25,26,90,41,145s36,127,45,160c10,33,33,107,50,165
        c38,126,209,638,243,730c116,310,155,412,199,520c28,69,59,144,69,167c11,23,19,44,19,47s11,29,24,58s34,76,46,103
        c12,28,33,74,46,103s24,54,24,57c0,4,33,75,118,255c87,186,372,748,392,775c4,6,22,37,40,70c107,197,133,242,205,363
        c28,46,59,100,71,120c24,42,89,149,104,172c37,55,171,268,177,280c4,8,23,38,42,65c20,28,41,58,46,67c6,10,42,63,80,118
        c39,56,75,109,80,118c6,9,29,42,53,74c23,31,42,59,42,63c0,3,4,11,10,18c38,48,110,150,110,157c0,5,6,13,13,17c11,7,62,72,97,123
        c8,12,35,48,60,80s56,74,70,94c14,19,28,32,32,28C15065,41368,15075,41343,15083,41315z"/>
    </g>
    </svg>
